<svg width="60" height="60" viewBox="0 0 60 60" xmlns="http://www.w3.org/2000/svg"><g fill="none" fill-rule="evenodd"><path d="M0 0h60v60H0z"/><path d="M36 34c0-2.209-1.791-4-4-4s-4 1.791-4 4 1.791 4 4 4 4-1.791 4-4zm0-18c0-2.209-1.791-4-4-4s-4 1.791-4 4 1.791 4 4 4 4-1.791 4-4zm18 0c0-2.209-1.791-4-4-4s-4 1.791-4 4 1.791 4 4 4 4-1.791 4-4zm0 18c0-2.209-1.791-4-4-4s-4 1.791-4 4 1.791 4 4 4 4-1.791 4-4zm-18 18c0-2.209-1.791-4-4-4s-4 1.791-4 4 1.791 4 4 4 4-1.791 4-4zm18 0c0-2.209-1.791-4-4-4s-4 1.791-4 4 1.791 4 4 4 4-1.791 4-4z" fill="#9494b8" fill-opacity="0.03"/></g></svg>
